<svg width="25" height="24" viewBox="0 0 10 10" fill="none" xmlns="http://www.w3.org/2000/svg">
<path fill-rule="evenodd" clip-rule="evenodd" d="M4.8472 0.638672C2.28921 0.638672 0.213867 2.71402 0.213867 5.27201C0.213867 7.82999 2.28921 9.90534 4.8472 9.90534C7.40017 9.90534 9.48053 7.82999 9.48053 5.27201C9.48053 2.71402 7.40017 0.638672 4.8472 0.638672ZM7.90752 2.77425C8.47799 3.469 8.79366 4.33796 8.80214 5.23687C8.67163 5.21177 7.36503 4.94536 6.04839 5.11138C6.01789 5.04574 5.99279 4.97547 5.96268 4.9052C5.88079 4.71191 5.79375 4.52085 5.70166 4.33221C7.15885 3.73914 7.82219 2.88507 7.90752 2.77425ZM4.8472 1.32247C5.85225 1.32247 6.77196 1.69893 7.47044 2.3171C7.40017 2.41749 6.80208 3.21674 5.39509 3.74416C4.74643 2.5534 4.02826 1.57808 3.91744 1.4275C4.22221 1.35633 4.53424 1.32134 4.8472 1.32247ZM3.16376 1.69391C3.26916 1.83484 3.97266 2.81479 4.63098 3.98046C2.78151 4.47314 1.14826 4.4631 0.972576 4.4631C1.22895 3.23681 2.05832 2.21671 3.16376 1.69391ZM0.887245 5.27702V5.15656C1.05829 5.16158 2.97765 5.18667 4.95299 4.59361C5.06844 4.81485 5.17385 5.04072 5.27424 5.26699C5.22405 5.28204 5.16883 5.2971 5.11864 5.31216C3.07843 5.97048 1.99268 7.76937 1.90233 7.92034C1.2488 7.19504 0.887168 6.25333 0.887245 5.27702ZM4.8472 9.23196C3.9325 9.23196 3.08846 8.92037 2.42011 8.39796C2.49038 8.25201 3.29426 6.70409 5.5256 5.92531C5.53564 5.92029 5.54104 5.92029 5.55069 5.91527C6.10863 7.35739 6.3345 8.56862 6.39512 8.91535C5.9175 9.12153 5.39509 9.23196 4.8472 9.23196ZM7.05344 8.55356C7.01328 8.31224 6.80208 7.15661 6.28431 5.73418C7.52565 5.53842 8.61101 5.86005 8.74692 5.90523C8.57588 7.00564 7.94265 7.95548 7.05344 8.55356Z" fill="white"/>
</svg>
