<svg width="25" height="24" viewBox="0 0 10 9" fill="none" xmlns="http://www.w3.org/2000/svg">
<path fill-rule="evenodd" clip-rule="evenodd" d="M3.02953 0.436128C3.48244 0.415278 3.62685 0.410645 4.78055 0.410645C5.93425 0.410645 6.07865 0.415664 6.53118 0.436128C6.9837 0.456592 7.29259 0.528795 7.56286 0.633431C7.84588 0.740383 8.10265 0.90757 8.31501 1.12379C8.53123 1.33577 8.69803 1.59214 8.8046 1.87555C8.90962 2.14583 8.98144 2.45472 9.00229 2.90647C9.02314 3.36015 9.02777 3.50455 9.02777 4.65787C9.02777 5.81157 9.02275 5.95597 9.00229 6.40888C8.98182 6.86063 8.90962 7.16952 8.8046 7.4398C8.69803 7.72324 8.53095 7.98004 8.31501 8.19233C8.10265 8.40855 7.84588 8.57535 7.56286 8.68192C7.29259 8.78694 6.9837 8.85876 6.53195 8.87961C6.07865 8.90046 5.93425 8.90509 4.78055 8.90509C3.62685 8.90509 3.48244 8.90007 3.02953 8.87961C2.57778 8.85914 2.26889 8.78694 1.99862 8.68192C1.71518 8.57534 1.45838 8.40826 1.24609 8.19233C1.03001 7.98023 0.8628 7.72355 0.756111 7.44018C0.651475 7.16991 0.579659 6.86102 0.558809 6.40927C0.537959 5.95559 0.533325 5.81118 0.533325 4.65787C0.533325 3.50417 0.538345 3.35976 0.558809 2.90724C0.579272 2.45472 0.651475 2.14583 0.756111 1.87555C0.862957 1.59218 1.0303 1.3355 1.24647 1.12341C1.45846 0.907377 1.71501 0.740169 1.99823 0.633431C2.26851 0.528795 2.5774 0.456978 3.02915 0.436128H3.02953ZM6.49681 1.20063C6.04892 1.18016 5.91456 1.17592 4.78055 1.17592C3.64654 1.17592 3.51217 1.18016 3.06428 1.20063C2.64999 1.21955 2.42527 1.28866 2.27546 1.34696C2.07738 1.42419 1.93568 1.51569 1.78703 1.66435C1.64611 1.80144 1.53767 1.96833 1.46964 2.15278C1.41134 2.30259 1.34223 2.52731 1.32331 2.9416C1.30284 3.38949 1.2986 3.52386 1.2986 4.65787C1.2986 5.79188 1.30284 5.92624 1.32331 6.37413C1.34223 6.78843 1.41134 7.01315 1.46964 7.16296C1.5376 7.34713 1.6461 7.51432 1.78703 7.65139C1.9241 7.79232 2.09128 7.90082 2.27546 7.96877C2.42527 8.02707 2.64999 8.09619 3.06428 8.11511C3.51217 8.13557 3.64615 8.13982 4.78055 8.13982C5.91494 8.13982 6.04892 8.13557 6.49681 8.11511C6.91111 8.09619 7.13583 8.02707 7.28564 7.96877C7.48371 7.89155 7.62541 7.80004 7.77407 7.65139C7.915 7.51432 8.0235 7.34713 8.09145 7.16296C8.14975 7.01315 8.21887 6.78843 8.23779 6.37413C8.25825 5.92624 8.2625 5.79188 8.2625 4.65787C8.2625 3.52386 8.25825 3.38949 8.23779 2.9416C8.21887 2.52731 8.14975 2.30259 8.09145 2.15278C8.01423 1.9547 7.92272 1.813 7.77407 1.66435C7.63697 1.52344 7.47008 1.415 7.28564 1.34696C7.13583 1.28866 6.91111 1.21955 6.49681 1.20063ZM4.23806 5.96717C4.54103 6.09329 4.87838 6.11031 5.1925 6.01533C5.50662 5.92035 5.77802 5.71925 5.96035 5.4464C6.14268 5.17355 6.22462 4.84585 6.19219 4.51929C6.15975 4.19273 6.01495 3.88756 5.78251 3.65591C5.63433 3.50783 5.45517 3.39444 5.25791 3.32391C5.06065 3.25338 4.85021 3.22746 4.64174 3.24803C4.43326 3.26859 4.23194 3.33512 4.05227 3.44283C3.87259 3.55053 3.71903 3.69674 3.60264 3.87092C3.48625 4.04509 3.40993 4.24291 3.37916 4.45012C3.3484 4.65734 3.36396 4.8688 3.42473 5.06927C3.4855 5.26975 3.58997 5.45426 3.7306 5.60952C3.87124 5.76478 4.04455 5.88693 4.23806 5.96717ZM3.23688 3.11419C3.43959 2.91148 3.68025 2.75067 3.94512 2.64096C4.20998 2.53125 4.49386 2.47478 4.78055 2.47478C5.06723 2.47478 5.35111 2.53125 5.61598 2.64096C5.88084 2.75067 6.1215 2.91148 6.32422 3.11419C6.52694 3.31691 6.68774 3.55757 6.79745 3.82244C6.90716 4.0873 6.96363 4.37118 6.96363 4.65787C6.96363 4.94455 6.90716 5.22843 6.79745 5.4933C6.68774 5.75816 6.52694 5.99882 6.32422 6.20154C5.91481 6.61095 5.35954 6.84095 4.78055 6.84095C4.20156 6.84095 3.64628 6.61095 3.23688 6.20154C2.82747 5.79213 2.59747 5.23686 2.59747 4.65787C2.59747 4.07888 2.82747 3.5236 3.23688 3.11419ZM7.4478 2.7999C7.49804 2.75251 7.53825 2.69553 7.56607 2.63232C7.59389 2.56911 7.60874 2.50096 7.60975 2.43191C7.61075 2.36286 7.59789 2.29431 7.57193 2.23031C7.54597 2.16632 7.50743 2.10819 7.4586 2.05935C7.40977 2.01052 7.35163 1.97198 7.28764 1.94602C7.22365 1.92006 7.1551 1.9072 7.08604 1.90821C7.01699 1.90922 6.94884 1.92407 6.88564 1.95188C6.82243 1.9797 6.76544 2.01992 6.71805 2.07015C6.62589 2.16785 6.57544 2.29762 6.57739 2.43191C6.57935 2.5662 6.63357 2.69445 6.72854 2.78941C6.82351 2.88438 6.95175 2.9386 7.08604 2.94056C7.22034 2.94252 7.35011 2.89206 7.4478 2.7999Z" fill="white"/>
</svg>
