<svg width="25" height="24" viewBox="0 0 9 9" fill="none" xmlns="http://www.w3.org/2000/svg">
<path fill-rule="evenodd" clip-rule="evenodd" d="M3.3213 3.48768H4.75532V4.20199C4.96189 3.79117 5.49163 3.42204 6.28741 3.42204C7.81293 3.42204 8.1751 4.23983 8.1751 5.74026V8.5191H6.63066V6.08196C6.63066 5.2275 6.42409 4.74563 5.89821 4.74563C5.16884 4.74563 4.86574 5.26495 4.86574 6.08158V8.5191H3.3213V3.48768ZM0.672964 8.45346H2.21741V3.42204H0.672964V8.45346ZM2.43865 1.78146C2.43871 1.91091 2.41303 2.03909 2.36312 2.15853C2.31321 2.27797 2.24005 2.38631 2.14791 2.47723C1.96119 2.6628 1.70844 2.76668 1.44519 2.76604C1.1824 2.76587 0.930234 2.66225 0.743236 2.47762C0.651424 2.38638 0.578516 2.27793 0.528691 2.15847C0.478867 2.03901 0.453104 1.91089 0.452881 1.78146C0.452881 1.52006 0.557131 1.26986 0.743623 1.0853C0.930456 0.900414 1.18272 0.796759 1.44557 0.796875C1.7089 0.796875 1.96142 0.900739 2.14791 1.0853C2.33401 1.26986 2.43865 1.52006 2.43865 1.78146Z" fill="white"/>
</svg>
