<svg width="76" height="19" viewBox="0 0 76 19" fill="none" xmlns="http://www.w3.org/2000/svg">
<path d="M13.2546 9.39436C11.8822 10.9277 9.88783 11.8927 7.66803 11.8927C5.44824 11.8927 3.45382 10.9277 2.08142 9.39436C3.45382 7.86099 5.44824 6.896 7.66803 6.896C9.88783 6.896 11.8822 7.86099 13.2546 9.39436Z" fill="white"/>
<path fill-rule="evenodd" clip-rule="evenodd" d="M0.172852 14.3911C0.172852 10.2517 3.52852 6.896 7.66795 6.896C5.44815 6.896 3.45375 7.86099 2.08135 9.39436C3.45375 10.9277 5.44816 11.8927 7.66796 11.8927C9.88775 11.8927 11.8822 10.9277 13.2546 9.39437C14.4414 10.7204 15.163 12.4715 15.163 14.3911V17.2226C15.163 17.5905 14.8648 17.8888 14.4968 17.8888H0.839082C0.471133 17.8888 0.172852 17.5905 0.172852 17.2226V14.3911ZM13.2546 9.39437C13.2546 9.39437 13.2546 9.39437 13.2546 9.39437Z" fill="#CDD0D8"/>
<path fill-rule="evenodd" clip-rule="evenodd" d="M4.85662 11.3476C3.78643 10.9143 2.83908 10.241 2.08135 9.39435C3.45375 7.86098 5.44816 6.89598 7.66796 6.89598C9.88775 6.89598 11.8822 7.86097 13.2546 9.39434C13.2546 9.39434 13.2546 9.39434 13.2546 9.39434C14.4414 8.06832 15.163 6.31724 15.163 4.39762V1.56613C15.163 1.19819 14.8648 0.899904 14.4968 0.899904L0.839082 0.899902C0.471134 0.899902 0.172852 1.19818 0.172852 1.56613L0.172852 4.39761C0.172851 7.54285 2.11018 10.2356 4.85662 11.3476Z" fill="#CDD0D8"/>
<path d="M26.8702 5.70932V13.2555H25.3567V10.0446H22.1242V13.2555H20.6106V5.70932H22.1242V8.8121H25.3567V5.70932H26.8702Z" fill="#CDD0D8"/>
<path d="M31.0195 13.3528C30.4429 13.3528 29.924 13.2266 29.4627 12.9744C29.0014 12.7149 28.6374 12.3509 28.3708 11.8825C28.1113 11.414 27.9816 10.8734 27.9816 10.2608C27.9816 9.64816 28.1149 9.10761 28.3816 8.63913C28.6555 8.17065 29.0266 7.81028 29.4951 7.55802C29.9636 7.29855 30.4861 7.16882 31.0627 7.16882C31.6393 7.16882 32.1619 7.29855 32.6303 7.55802C33.0988 7.81028 33.4664 8.17065 33.7331 8.63913C34.007 9.10761 34.1439 9.64816 34.1439 10.2608C34.1439 10.8734 34.0034 11.414 33.7223 11.8825C33.4484 12.3509 33.0736 12.7149 32.5979 12.9744C32.1294 13.2266 31.6033 13.3528 31.0195 13.3528ZM31.0195 12.0338C31.2934 12.0338 31.5492 11.9689 31.7871 11.8392C32.0321 11.7023 32.2267 11.5005 32.3709 11.2338C32.515 10.9671 32.5871 10.6428 32.5871 10.2608C32.5871 9.69141 32.4357 9.25536 32.133 8.95265C31.8375 8.64273 31.4736 8.48777 31.0411 8.48777C30.6087 8.48777 30.2447 8.64273 29.9492 8.95265C29.6609 9.25536 29.5167 9.69141 29.5167 10.2608C29.5167 10.8302 29.6573 11.2698 29.9384 11.5797C30.2267 11.8825 30.5871 12.0338 31.0195 12.0338Z" fill="#CDD0D8"/>
<path d="M40.9084 7.26612V13.2555H39.384V12.4987C39.1894 12.7582 38.9335 12.9636 38.6164 13.1149C38.3065 13.2591 37.9677 13.3311 37.6002 13.3311C37.1317 13.3311 36.7173 13.2338 36.3569 13.0392C35.9965 12.8374 35.7118 12.5455 35.5028 12.1635C35.301 11.7743 35.2001 11.3131 35.2001 10.7797V7.26612H36.7137V10.5635C36.7137 11.0392 36.8326 11.4068 37.0704 11.6662C37.3083 11.9185 37.6326 12.0446 38.0434 12.0446C38.4614 12.0446 38.7894 11.9185 39.0272 11.6662C39.2651 11.4068 39.384 11.0392 39.384 10.5635V7.26612H40.9084Z" fill="#CDD0D8"/>
<path d="M43.9153 8.19587C44.1099 7.87875 44.3621 7.63009 44.6721 7.4499C44.9892 7.26972 45.3496 7.17963 45.7532 7.17963V8.76886H45.3532C44.8775 8.76886 44.5171 8.88058 44.2721 9.10401C44.0342 9.32743 43.9153 9.71663 43.9153 10.2716V13.2555H42.4017V7.26612H43.9153V8.19587Z" fill="#CDD0D8"/>
<path d="M49.1186 7.16882C49.5655 7.16882 49.9583 7.25891 50.297 7.43909C50.6358 7.61207 50.9025 7.8391 51.0971 8.12019V7.26612H52.6214V13.2987C52.6214 13.8537 52.5097 14.3474 52.2863 14.7798C52.0629 15.2195 51.7277 15.5654 51.2809 15.8177C50.834 16.0772 50.2934 16.2069 49.6592 16.2069C48.8087 16.2069 48.1096 16.0087 47.5618 15.6123C47.0213 15.2159 46.715 14.6753 46.6429 13.9906H48.1456C48.2249 14.2645 48.3943 14.4807 48.6538 14.6393C48.9204 14.8051 49.2412 14.888 49.6159 14.888C50.0556 14.888 50.4124 14.7546 50.6862 14.4879C50.9601 14.2285 51.0971 13.8321 51.0971 13.2987V12.369C50.9025 12.65 50.6322 12.8843 50.2862 13.0717C49.9475 13.2591 49.5583 13.3528 49.1186 13.3528C48.6141 13.3528 48.1528 13.223 47.7348 12.9636C47.3168 12.7041 46.9852 12.3401 46.7402 11.8717C46.5023 11.396 46.3834 10.8518 46.3834 10.2392C46.3834 9.63375 46.5023 9.0968 46.7402 8.62832C46.9852 8.15983 47.3132 7.79946 47.724 7.5472C48.142 7.29495 48.6069 7.16882 49.1186 7.16882ZM51.0971 10.2608C51.0971 9.89322 51.025 9.57969 50.8808 9.32023C50.7367 9.05355 50.5421 8.85175 50.297 8.7148C50.052 8.57066 49.7889 8.49858 49.5078 8.49858C49.2267 8.49858 48.9673 8.56705 48.7294 8.70399C48.4916 8.84093 48.297 9.04274 48.1456 9.30942C48.0015 9.56888 47.9294 9.8788 47.9294 10.2392C47.9294 10.5995 48.0015 10.9167 48.1456 11.1905C48.297 11.4572 48.4916 11.6626 48.7294 11.8068C48.9745 11.9509 49.234 12.023 49.5078 12.023C49.7889 12.023 50.052 11.9545 50.297 11.8176C50.5421 11.6734 50.7367 11.4716 50.8808 11.2122C51.025 10.9455 51.0971 10.6284 51.0971 10.2608Z" fill="#CDD0D8"/>
<path d="M55.6132 5.25525V13.2555H54.0997V5.25525H55.6132Z" fill="#CDD0D8"/>
<path d="M56.7194 10.2392C56.7194 9.63375 56.8384 9.0968 57.0762 8.62832C57.3213 8.15983 57.6492 7.79946 58.06 7.5472C58.478 7.29495 58.9429 7.16882 59.4546 7.16882C59.9015 7.16882 60.2907 7.25891 60.6222 7.43909C60.961 7.61928 61.2313 7.84631 61.4331 8.12019V7.26612H62.9574V13.2555H61.4331V12.3798C61.2385 12.6609 60.9682 12.8951 60.6222 13.0825C60.2835 13.2627 59.8907 13.3528 59.4438 13.3528C58.9393 13.3528 58.478 13.223 58.06 12.9636C57.6492 12.7041 57.3213 12.3401 57.0762 11.8717C56.8384 11.396 56.7194 10.8518 56.7194 10.2392ZM61.4331 10.2608C61.4331 9.89322 61.361 9.57969 61.2169 9.32023C61.0727 9.05355 60.8781 8.85175 60.6331 8.7148C60.388 8.57066 60.1249 8.49858 59.8438 8.49858C59.5628 8.49858 59.3033 8.56705 59.0654 8.70399C58.8276 8.84093 58.633 9.04274 58.4816 9.30942C58.3375 9.56888 58.2654 9.8788 58.2654 10.2392C58.2654 10.5995 58.3375 10.9167 58.4816 11.1905C58.633 11.4572 58.8276 11.6626 59.0654 11.8068C59.3105 11.9509 59.57 12.023 59.8438 12.023C60.1249 12.023 60.388 11.9545 60.6331 11.8176C60.8781 11.6734 61.0727 11.4716 61.2169 11.2122C61.361 10.9455 61.4331 10.6284 61.4331 10.2608Z" fill="#CDD0D8"/>
<path d="M66.7276 13.3528C66.2375 13.3528 65.7979 13.2663 65.4087 13.0933C65.0195 12.9131 64.7096 12.6717 64.4789 12.369C64.2555 12.0662 64.133 11.7311 64.1114 11.3635H65.6357C65.6646 11.5942 65.7763 11.7852 65.9709 11.9365C66.1727 12.0879 66.4213 12.1635 66.7168 12.1635C67.0051 12.1635 67.2286 12.1059 67.3871 11.9906C67.5529 11.8753 67.6358 11.7275 67.6358 11.5473C67.6358 11.3527 67.5349 11.2086 67.3331 11.1149C67.1385 11.014 66.8249 10.9059 66.3925 10.7905C65.9456 10.6824 65.5781 10.5707 65.2898 10.4554C65.0087 10.3401 64.7636 10.1635 64.5546 9.92565C64.3528 9.6878 64.2519 9.36708 64.2519 8.96346C64.2519 8.63192 64.3456 8.32921 64.533 8.05533C64.7276 7.78144 65.0015 7.56522 65.3546 7.40666C65.715 7.2481 66.1366 7.16882 66.6195 7.16882C67.3331 7.16882 67.9025 7.349 68.3277 7.70937C68.7529 8.06253 68.9872 8.54183 69.0304 9.14725H67.5817C67.5601 8.9094 67.4592 8.72201 67.279 8.58507C67.106 8.44092 66.8718 8.36885 66.5763 8.36885C66.3024 8.36885 66.0898 8.4193 65.9384 8.5202C65.7943 8.62111 65.7222 8.76165 65.7222 8.94184C65.7222 9.14365 65.8231 9.2986 66.0249 9.40672C66.2267 9.50762 66.5403 9.61213 66.9655 9.72024C67.3979 9.82835 67.7547 9.94006 68.0358 10.0554C68.3169 10.1707 68.5583 10.3509 68.7601 10.5959C68.9691 10.8338 69.0773 11.1509 69.0845 11.5473C69.0845 11.8933 68.9872 12.2032 68.7926 12.4771C68.6052 12.751 68.3313 12.9672 67.9709 13.1257C67.6178 13.2771 67.2033 13.3528 66.7276 13.3528Z" fill="#CDD0D8"/>
<path d="M72.6188 13.3528C72.1287 13.3528 71.6891 13.2663 71.2999 13.0933C70.9107 12.9131 70.6008 12.6717 70.3701 12.369C70.1467 12.0662 70.0242 11.7311 70.0026 11.3635H71.5269C71.5558 11.5942 71.6675 11.7852 71.8621 11.9365C72.0639 12.0879 72.3125 12.1635 72.608 12.1635C72.8963 12.1635 73.1198 12.1059 73.2783 11.9906C73.4441 11.8753 73.527 11.7275 73.527 11.5473C73.527 11.3527 73.4261 11.2086 73.2243 11.1149C73.0297 11.014 72.7162 10.9059 72.2837 10.7905C71.8368 10.6824 71.4693 10.5707 71.181 10.4554C70.8999 10.3401 70.6548 10.1635 70.4458 9.92565C70.244 9.6878 70.1431 9.36708 70.1431 8.96346C70.1431 8.63192 70.2368 8.32921 70.4242 8.05533C70.6188 7.78144 70.8927 7.56522 71.2458 7.40666C71.6062 7.2481 72.0278 7.16882 72.5107 7.16882C73.2243 7.16882 73.7937 7.349 74.2189 7.70937C74.6441 8.06253 74.8784 8.54183 74.9216 9.14725H73.4729C73.4513 8.9094 73.3504 8.72201 73.1702 8.58507C72.9972 8.44092 72.763 8.36885 72.4675 8.36885C72.1936 8.36885 71.981 8.4193 71.8296 8.5202C71.6855 8.62111 71.6134 8.76165 71.6134 8.94184C71.6134 9.14365 71.7143 9.2986 71.9161 9.40672C72.1179 9.50762 72.4315 9.61213 72.8567 9.72024C73.2891 9.82835 73.6459 9.94006 73.927 10.0554C74.2081 10.1707 74.4495 10.3509 74.6513 10.5959C74.8604 10.8338 74.9685 11.1509 74.9757 11.5473C74.9757 11.8933 74.8784 12.2032 74.6838 12.4771C74.4964 12.751 74.2225 12.9672 73.8621 13.1257C73.509 13.2771 73.0945 13.3528 72.6188 13.3528Z" fill="#CDD0D8"/>
</svg>
