<svg width="74" height="19" viewBox="0 0 74 19" fill="none" xmlns="http://www.w3.org/2000/svg">
<path fill-rule="evenodd" clip-rule="evenodd" d="M9.37274 14.2079C12.0312 14.2079 14.1863 12.0528 14.1863 9.39435C14.1863 6.73591 12.0312 4.58083 9.37274 4.58083C6.71431 4.58083 4.55922 6.73591 4.55922 9.39435C4.55922 12.0528 6.71431 14.2079 9.37274 14.2079ZM9.37274 17.8888C14.0641 17.8888 17.8672 14.0857 17.8672 9.39435C17.8672 4.70299 14.0641 0.899902 9.37274 0.899902C4.68139 0.899902 0.878296 4.70299 0.878296 9.39435C0.878296 14.0857 4.68139 17.8888 9.37274 17.8888Z" fill="#CDD0D8"/>
<path d="M9.46993 9.5803C10.3545 8.69569 11.7888 8.69569 12.6734 9.5803L17.0781 13.9851C17.9627 14.8697 17.9627 16.3039 17.0781 17.1885V17.1885C16.1935 18.0731 14.7593 18.0731 13.8747 17.1885L9.46993 12.7838C8.58532 11.8992 8.58532 10.4649 9.46993 9.5803V9.5803Z" fill="#CDD0D8"/>
<path d="M10.7067 14.0206L13.5042 16.8181C14.846 16.0698 15.9639 14.9682 16.7321 13.6391L13.9575 10.8646C13.4702 12.3856 12.2469 13.5773 10.7067 14.0206Z" fill="white"/>
<path d="M31.5818 14.0663C31.3368 14.369 31.0377 14.5997 30.6845 14.7582C30.3385 14.9168 29.9566 14.9961 29.5385 14.9961C28.9763 14.9961 28.4682 14.8735 28.0142 14.6285C27.5601 14.3906 27.0412 13.9654 26.4574 13.3528C25.7726 13.2663 25.16 13.0465 24.6195 12.6933C24.0861 12.3401 23.6681 11.8861 23.3654 11.3311C23.0699 10.7689 22.9221 10.1491 22.9221 9.47159C22.9221 8.72922 23.0987 8.06254 23.4519 7.47153C23.8122 6.87332 24.3059 6.40484 24.933 6.06609C25.5672 5.72734 26.2772 5.55797 27.0628 5.55797C27.8484 5.55797 28.5547 5.72734 29.1818 6.06609C29.8088 6.40484 30.3025 6.87332 30.6629 7.47153C31.0232 8.06254 31.2034 8.72922 31.2034 9.47159C31.2034 10.3509 30.9548 11.1221 30.4575 11.7852C29.9674 12.4482 29.3151 12.9095 28.5007 13.169C28.6808 13.3564 28.8538 13.4897 29.0196 13.569C29.1926 13.6555 29.3764 13.6987 29.571 13.6987C30.0394 13.6987 30.4503 13.5113 30.8034 13.1366L31.5818 14.0663ZM24.6951 9.47159C24.6951 9.94007 24.796 10.3581 24.9979 10.7257C25.2069 11.0933 25.4916 11.3816 25.8519 11.5906C26.2123 11.7924 26.6159 11.8933 27.0628 11.8933C27.5096 11.8933 27.9132 11.7924 28.2736 11.5906C28.634 11.3816 28.9151 11.0933 29.1169 10.7257C29.3259 10.3581 29.4304 9.94007 29.4304 9.47159C29.4304 9.00311 29.3259 8.58508 29.1169 8.2175C28.9151 7.84992 28.634 7.56523 28.2736 7.36342C27.9132 7.15441 27.5096 7.0499 27.0628 7.0499C26.6159 7.0499 26.2123 7.15441 25.8519 7.36342C25.4916 7.56523 25.2069 7.84992 24.9979 8.2175C24.796 8.58508 24.6951 9.00311 24.6951 9.47159Z" fill="#CDD0D8"/>
<path d="M38.2604 7.4391V13.2555H36.6603V12.5636C36.4369 12.8158 36.1702 13.0104 35.8603 13.1474C35.5504 13.2771 35.2153 13.342 34.8549 13.342C34.0909 13.342 33.4855 13.1221 33.0386 12.6825C32.5918 12.2428 32.3683 11.5906 32.3683 10.7257V7.4391H34.0549V10.477C34.0549 11.414 34.4477 11.8825 35.2333 11.8825C35.6369 11.8825 35.9612 11.7527 36.2063 11.4933C36.4513 11.2266 36.5739 10.8338 36.5739 10.3149V7.4391H38.2604Z" fill="#CDD0D8"/>
<path d="M42.5905 13.342C41.9779 13.342 41.4265 13.2158 40.9364 12.9636C40.4535 12.7041 40.0751 12.3473 39.8012 11.8933C39.5273 11.4392 39.3904 10.9239 39.3904 10.3473C39.3904 9.7707 39.5273 9.25537 39.8012 8.8013C40.0751 8.34723 40.4535 7.99407 40.9364 7.74181C41.4265 7.48234 41.9779 7.35261 42.5905 7.35261C43.2031 7.35261 43.7509 7.48234 44.2338 7.74181C44.7167 7.99407 45.0951 8.34723 45.3689 8.8013C45.6428 9.25537 45.7798 9.7707 45.7798 10.3473C45.7798 10.9239 45.6428 11.4392 45.3689 11.8933C45.0951 12.3473 44.7167 12.7041 44.2338 12.9636C43.7509 13.2158 43.2031 13.342 42.5905 13.342ZM42.5905 11.9581C43.0229 11.9581 43.3761 11.814 43.65 11.5257C43.9311 11.2302 44.0716 10.8374 44.0716 10.3473C44.0716 9.85718 43.9311 9.46798 43.65 9.17969C43.3761 8.88418 43.0229 8.73643 42.5905 8.73643C42.158 8.73643 41.8013 8.88418 41.5202 9.17969C41.2391 9.46798 41.0986 9.85718 41.0986 10.3473C41.0986 10.8374 41.2391 11.2302 41.5202 11.5257C41.8013 11.814 42.158 11.9581 42.5905 11.9581Z" fill="#CDD0D8"/>
<path d="M50.6585 12.9744C50.4928 13.0969 50.2874 13.1906 50.0423 13.2555C49.8045 13.3131 49.5522 13.342 49.2855 13.342C48.5936 13.342 48.0567 13.1654 47.6747 12.8122C47.2999 12.4591 47.1125 11.9401 47.1125 11.2554V8.86617H46.2152V7.56883H47.1125V6.15258H48.799V7.56883H50.2477V8.86617H48.799V11.2338C48.799 11.4789 48.8603 11.6698 48.9828 11.8068C49.1125 11.9365 49.2927 12.0014 49.5234 12.0014C49.79 12.0014 50.0171 11.9293 50.2045 11.7852L50.6585 12.9744Z" fill="#CDD0D8"/>
<path d="M51.6053 7.4391H53.2918V13.2555H51.6053V7.4391ZM52.4485 6.62827C52.1386 6.62827 51.8864 6.53817 51.6918 6.35799C51.4972 6.1778 51.3999 5.95437 51.3999 5.6877C51.3999 5.42102 51.4972 5.19759 51.6918 5.01741C51.8864 4.83722 52.1386 4.74713 52.4485 4.74713C52.7584 4.74713 53.0107 4.83362 53.2053 5.0066C53.3999 5.17958 53.4972 5.3958 53.4972 5.65527C53.4972 5.93635 53.3999 6.17059 53.2053 6.35799C53.0107 6.53817 52.7584 6.62827 52.4485 6.62827Z" fill="#CDD0D8"/>
<path d="M60.5545 10.3689C60.5545 10.3905 60.5437 10.5419 60.5221 10.823H56.1219C56.2012 11.1833 56.3886 11.468 56.6841 11.6771C56.9796 11.8861 57.3472 11.9906 57.7869 11.9906C58.0896 11.9906 58.3562 11.9473 58.5869 11.8608C58.8247 11.7671 59.0445 11.623 59.2464 11.4284L60.1437 12.4014C59.5959 13.0284 58.7959 13.342 57.7436 13.342C57.0877 13.342 56.5075 13.2158 56.003 12.9636C55.4985 12.7041 55.1093 12.3473 54.8354 11.8933C54.5615 11.4392 54.4246 10.9239 54.4246 10.3473C54.4246 9.7779 54.5579 9.26618 54.8246 8.81211C55.0985 8.35084 55.4697 7.99407 55.9382 7.74181C56.4138 7.48234 56.9436 7.35261 57.5274 7.35261C58.0968 7.35261 58.6121 7.47514 59.0734 7.72019C59.5347 7.96524 59.895 8.3184 60.1545 8.77968C60.4212 9.23374 60.5545 9.76349 60.5545 10.3689ZM57.5382 8.62832C57.1562 8.62832 56.8355 8.73643 56.576 8.95265C56.3165 9.16888 56.158 9.46438 56.1003 9.83917H58.9653C58.9076 9.47159 58.749 9.17969 58.4896 8.96347C58.2301 8.74004 57.913 8.62832 57.5382 8.62832Z" fill="#CDD0D8"/>
<path d="M65.2126 7.35261C65.9333 7.35261 66.5135 7.56883 66.9532 8.00128C67.4 8.43372 67.6234 9.07518 67.6234 9.92565V13.2555H65.9369V10.1851C65.9369 9.72385 65.836 9.3815 65.6342 9.15807C65.4324 8.92743 65.1405 8.81211 64.7585 8.81211C64.3333 8.81211 63.9945 8.94545 63.7423 9.21212C63.49 9.47159 63.3639 9.86079 63.3639 10.3797V13.2555H61.6773V7.4391H63.2882V8.1202C63.5116 7.87515 63.7891 7.68775 64.1206 7.55802C64.4522 7.42108 64.8162 7.35261 65.2126 7.35261Z" fill="#CDD0D8"/>
<path d="M72.9037 12.9744C72.7379 13.0969 72.5325 13.1906 72.2874 13.2555C72.0496 13.3131 71.7973 13.342 71.5307 13.342C70.8387 13.342 70.3018 13.1654 69.9198 12.8122C69.545 12.4591 69.3576 11.9401 69.3576 11.2554V8.86617H68.4603V7.56883H69.3576V6.15258H71.0442V7.56883H72.4928V8.86617H71.0442V11.2338C71.0442 11.4789 71.1054 11.6698 71.2279 11.8068C71.3577 11.9365 71.5379 12.0014 71.7685 12.0014C72.0352 12.0014 72.2622 11.9293 72.4496 11.7852L72.9037 12.9744Z" fill="#CDD0D8"/>
</svg>