<svg width="57" height="19" viewBox="0 0 57 19" fill="none" xmlns="http://www.w3.org/2000/svg">
<path d="M5.41599 8.74499C5.73347 7.5603 6.95123 6.34254 8.13592 6.02506L15.5218 4.04571C16.7065 3.72822 17.4095 4.43124 17.0921 5.61593L15.1127 13.0018C14.7952 14.1865 13.5775 15.4043 12.3928 15.7218L5.00686 17.7011C3.82216 18.0186 3.11915 17.3156 3.43664 16.1309L5.41599 8.74499Z" fill="#CDD0D8"/>
<path d="M2.45505 5.78393C2.77253 4.59924 3.99029 3.38148 5.17498 3.064L12.5609 1.08465C13.7456 0.767163 14.4486 1.47017 14.1311 2.65487L12.1518 10.0408C11.8343 11.2255 10.6165 12.4432 9.43184 12.7607L2.04592 14.7401C0.861228 15.0575 0.158216 14.3545 0.475702 13.1698L2.45505 5.78393Z" fill="#CDD0D8"/>
<path d="M23.955 12.2609H26.4956V13.2555H22.7225V5.74176H23.955V12.2609Z" fill="#CDD0D8"/>
<path d="M27.1155 10.25C27.1155 9.65178 27.238 9.12203 27.4831 8.66076C27.7353 8.19949 28.0741 7.84272 28.4993 7.59046C28.9317 7.33099 29.4074 7.20126 29.9264 7.20126C30.3948 7.20126 30.8021 7.29496 31.148 7.48235C31.5012 7.66253 31.7823 7.88957 31.9913 8.16345V7.29856H33.2346V13.2555H31.9913V12.369C31.7823 12.6501 31.4976 12.8843 31.1372 13.0717C30.7768 13.2591 30.366 13.3528 29.9047 13.3528C29.393 13.3528 28.9245 13.223 28.4993 12.9636C28.0741 12.6969 27.7353 12.3293 27.4831 11.8608C27.238 11.3852 27.1155 10.8482 27.1155 10.25ZM31.9913 10.2716C31.9913 9.86079 31.9048 9.50403 31.7318 9.20132C31.566 8.89861 31.3462 8.66797 31.0723 8.50941C30.7985 8.35084 30.503 8.27156 30.1858 8.27156C29.8687 8.27156 29.5732 8.35084 29.2993 8.50941C29.0254 8.66076 28.802 8.88779 28.629 9.19051C28.4633 9.48601 28.3804 9.83917 28.3804 10.25C28.3804 10.6608 28.4633 11.0212 28.629 11.3311C28.802 11.641 29.0254 11.8789 29.2993 12.0446C29.5804 12.2032 29.8759 12.2825 30.1858 12.2825C30.503 12.2825 30.7985 12.2032 31.0723 12.0446C31.3462 11.8861 31.566 11.6554 31.7318 11.3527C31.9048 11.0428 31.9913 10.6824 31.9913 10.2716Z" fill="#CDD0D8"/>
<path d="M40.2157 7.29856L36.5615 16.0556H35.2858L36.4966 13.1582L34.1506 7.29856H35.5236L37.1994 11.8392L38.94 7.29856H40.2157Z" fill="#CDD0D8"/>
<path d="M46.6054 10.1311C46.6054 10.3545 46.591 10.5563 46.5621 10.7365H42.0107C42.0467 11.2122 42.2233 11.5942 42.5404 11.8825C42.8575 12.1708 43.2467 12.3149 43.708 12.3149C44.3711 12.3149 44.8396 12.0374 45.1134 11.4825H46.4432C46.263 12.0302 45.9351 12.4807 45.4594 12.8338C44.9909 13.1798 44.4071 13.3528 43.708 13.3528C43.1386 13.3528 42.6269 13.2267 42.1728 12.9744C41.726 12.7149 41.3728 12.3546 41.1133 11.8933C40.8611 11.4248 40.7349 10.8842 40.7349 10.2716C40.7349 9.65899 40.8575 9.12203 41.1025 8.66076C41.3548 8.19228 41.7043 7.83191 42.1512 7.57965C42.6053 7.32739 43.1242 7.20126 43.708 7.20126C44.2702 7.20126 44.7711 7.32379 45.2107 7.56884C45.6504 7.81389 45.9927 8.15985 46.2378 8.60671C46.4828 9.04636 46.6054 9.55448 46.6054 10.1311ZM45.3189 9.74187C45.3116 9.2878 45.1495 8.92383 44.8324 8.64995C44.5152 8.37607 44.1224 8.23913 43.6539 8.23913C43.2287 8.23913 42.8647 8.37607 42.562 8.64995C42.2593 8.91662 42.0791 9.2806 42.0215 9.74187H45.3189Z" fill="#CDD0D8"/>
<path d="M49.0507 8.16345C49.2309 7.86074 49.4687 7.6265 49.7642 7.46073C50.067 7.28775 50.4237 7.20126 50.8345 7.20126V8.47697H50.521C50.0381 8.47697 49.6705 8.5995 49.4183 8.84455C49.1732 9.0896 49.0507 9.51484 49.0507 10.1203V13.2555H47.8182V7.29856H49.0507V8.16345Z" fill="#CDD0D8"/>
<path d="M54.1297 13.3528C53.6612 13.3528 53.2395 13.2699 52.8648 13.1041C52.4972 12.9311 52.2053 12.7005 51.9891 12.4122C51.7728 12.1167 51.6575 11.7888 51.6431 11.4284H52.9188C52.9404 11.6807 53.0594 11.8933 53.2756 12.0663C53.499 12.232 53.7765 12.3149 54.108 12.3149C54.454 12.3149 54.7207 12.25 54.9081 12.1203C55.1027 11.9834 55.2 11.8104 55.2 11.6014C55.2 11.378 55.0918 11.2122 54.8756 11.1041C54.6666 10.996 54.3315 10.877 53.8702 10.7473C53.4233 10.6248 53.0594 10.5059 52.7783 10.3905C52.4972 10.2752 52.2521 10.0986 52.0431 9.86079C51.8413 9.62295 51.7404 9.30943 51.7404 8.92023C51.7404 8.6031 51.8341 8.3148 52.0215 8.05534C52.2089 7.78866 52.4756 7.57965 52.8215 7.42829C53.1747 7.27694 53.5783 7.20126 54.0324 7.20126C54.7098 7.20126 55.254 7.37424 55.6648 7.72019C56.0829 8.05894 56.3063 8.52382 56.3351 9.11483H55.1027C55.081 8.84815 54.9729 8.63553 54.7783 8.47697C54.5837 8.31841 54.3206 8.23913 53.9891 8.23913C53.6648 8.23913 53.4161 8.30039 53.2431 8.42292C53.0702 8.54544 52.9837 8.70761 52.9837 8.90942C52.9837 9.06798 53.0413 9.20132 53.1567 9.30943C53.272 9.41754 53.4125 9.50403 53.5783 9.56889C53.7441 9.62655 53.9891 9.70223 54.3134 9.79593C54.7459 9.91125 55.099 10.0302 55.3729 10.1527C55.654 10.268 55.8955 10.441 56.0973 10.6716C56.2991 10.9023 56.4036 11.2086 56.4108 11.5906C56.4108 11.9293 56.3171 12.232 56.1297 12.4987C55.9423 12.7654 55.6756 12.9744 55.3297 13.1257C54.9909 13.2771 54.5909 13.3528 54.1297 13.3528Z" fill="#CDD0D8"/>
</svg>