<svg width="71" height="19" viewBox="0 0 71 19" fill="none" xmlns="http://www.w3.org/2000/svg">
<path d="M6.36535 13.0348C9.71631 13.0348 12.4328 10.3183 12.4328 6.96734C12.4328 6.58756 12.3979 6.21594 12.3312 5.85549C11.9707 5.78874 11.5991 5.75385 11.2193 5.75385C7.86835 5.75385 5.15186 8.47034 5.15186 11.8213C5.15186 12.2011 5.18675 12.5727 5.2535 12.9332C5.61395 12.9999 5.98557 13.0348 6.36535 13.0348Z" fill="white"/>
<path fill-rule="evenodd" clip-rule="evenodd" d="M5.25347 12.9332C2.4335 12.4109 0.297852 9.93855 0.297852 6.96736C0.297852 3.6164 3.01435 0.899902 6.36531 0.899902C9.3365 0.899902 11.8089 3.03555 12.3311 5.85552C11.9707 5.78876 11.5991 5.75387 11.2193 5.75387C7.86832 5.75387 5.15182 8.47037 5.15182 11.8213C5.15182 12.2011 5.18671 12.5727 5.25347 12.9332Z" fill="#CDD0D8"/>
<path fill-rule="evenodd" clip-rule="evenodd" d="M6.36527 13.0348C9.71623 13.0348 12.4327 10.3183 12.4327 6.96732C12.4327 6.58754 12.3978 6.21591 12.3311 5.85547C15.1511 6.37771 17.2867 8.85009 17.2867 11.8213C17.2867 15.1723 14.5702 17.8887 11.2192 17.8887C8.24804 17.8887 5.77566 15.7531 5.25342 12.9331C5.61386 12.9999 5.98549 13.0348 6.36527 13.0348Z" fill="#CDD0D8"/>
<path d="M28.9581 11.2878C28.7419 11.9869 28.3635 12.5095 27.8229 12.8554C27.2824 13.1942 26.6517 13.3635 25.931 13.3635C25.2246 13.3635 24.612 13.2158 24.0931 12.9203C23.5814 12.6248 23.185 12.2031 22.9039 11.6554C22.63 11.1076 22.493 10.4517 22.493 9.68776C22.493 8.92378 22.6336 8.2679 22.9147 7.72014C23.1958 7.17238 23.5922 6.75074 24.1039 6.45524C24.6156 6.15974 25.2174 6.01198 25.9094 6.01198C26.6373 6.01198 27.2607 6.16694 27.7797 6.47686C28.3058 6.77957 28.6662 7.24085 28.8608 7.86068L27.5094 8.43367C27.3869 8.00123 27.1995 7.69491 26.9472 7.51473C26.695 7.32734 26.3706 7.23364 25.9742 7.23364C25.3832 7.23364 24.9111 7.44626 24.558 7.87149C24.212 8.28952 24.039 8.89495 24.039 9.68776C24.039 10.4734 24.2048 11.0788 24.5363 11.504C24.8679 11.9293 25.3472 12.1419 25.9742 12.1419C26.3634 12.1419 26.6986 12.0374 26.9797 11.8284C27.2679 11.6193 27.4698 11.3022 27.5851 10.877L28.9581 11.2878Z" fill="#CDD0D8"/>
<path d="M30.8243 7.07147C30.2116 7.07147 29.9053 6.8084 29.9053 6.28226C29.9053 5.74891 30.2116 5.48224 30.8243 5.48224C31.4369 5.48224 31.7432 5.74891 31.7432 6.28226C31.7432 6.8084 31.4369 7.07147 30.8243 7.07147ZM31.5594 7.84987V13.2554H30.0783V7.84987H31.5594Z" fill="#CDD0D8"/>
<path d="M33.1295 13.2554V7.84987H34.416L34.5133 8.90936C34.6502 8.54178 34.8557 8.25709 35.1295 8.05528C35.4106 7.84627 35.7638 7.74176 36.189 7.74176C36.4413 7.74176 36.6359 7.7814 36.7728 7.86068L36.5999 9.10396C36.5278 9.08234 36.4377 9.06432 36.3296 9.04991C36.2287 9.02828 36.0953 9.01747 35.9296 9.01747C35.7061 9.01747 35.4935 9.07153 35.2917 9.17964C35.0971 9.28054 34.9349 9.43911 34.8052 9.65533C34.6755 9.86434 34.6106 10.131 34.6106 10.4554V13.2554H33.1295Z" fill="#CDD0D8"/>
<path d="M40.039 7.74176C40.7597 7.74176 41.3183 7.89672 41.7147 8.20664C42.1183 8.51656 42.385 8.89134 42.5147 9.33099L41.1309 9.82831C40.9867 9.17243 40.63 8.84449 40.0606 8.84449C39.6498 8.84449 39.329 8.98864 39.0984 9.27694C38.875 9.56524 38.7633 9.99408 38.7633 10.5635C38.7633 11.1401 38.8786 11.5689 39.1092 11.85C39.3471 12.1239 39.6678 12.2608 40.0714 12.2608C40.6984 12.2608 41.0732 11.9401 41.1958 11.2986L42.5363 11.7311C42.4138 12.214 42.1399 12.6068 41.7147 12.9095C41.2967 13.2122 40.7525 13.3635 40.0822 13.3635C39.52 13.3635 39.0263 13.2518 38.6011 13.0284C38.1831 12.805 37.8587 12.4842 37.6281 12.0662C37.3975 11.6482 37.2821 11.1437 37.2821 10.5527C37.2821 9.96164 37.3975 9.45712 37.6281 9.03909C37.8659 8.62107 38.1903 8.30034 38.6011 8.07691C39.0191 7.85348 39.4984 7.74176 40.039 7.74176Z" fill="#CDD0D8"/>
<path d="M46.1521 7.74176C46.6927 7.74176 47.172 7.85348 47.59 8.07691C48.008 8.30034 48.3324 8.62107 48.563 9.03909C48.8009 9.45712 48.9198 9.96164 48.9198 10.5527C48.9198 11.1437 48.8009 11.6482 48.563 12.0662C48.3324 12.4842 48.008 12.805 47.59 13.0284C47.172 13.2518 46.6927 13.3635 46.1521 13.3635C45.6044 13.3635 45.1215 13.2518 44.7035 13.0284C44.2926 12.805 43.9683 12.4842 43.7305 12.0662C43.4998 11.6482 43.3845 11.1437 43.3845 10.5527C43.3845 9.96164 43.4998 9.45712 43.7305 9.03909C43.9683 8.62107 44.2926 8.30034 44.7035 8.07691C45.1215 7.85348 45.6044 7.74176 46.1521 7.74176ZM46.1521 8.84449C45.7485 8.84449 45.4314 8.98864 45.2008 9.27694C44.9773 9.55803 44.8656 9.98327 44.8656 10.5527C44.8656 11.122 44.9773 11.5509 45.2008 11.8392C45.4314 12.1203 45.7485 12.2608 46.1521 12.2608C46.5485 12.2608 46.8585 12.1203 47.0819 11.8392C47.3125 11.5509 47.4279 11.122 47.4279 10.5527C47.4279 9.98327 47.3125 9.55803 47.0819 9.27694C46.8585 8.98864 46.5485 8.84449 46.1521 8.84449Z" fill="#CDD0D8"/>
<path d="M52.624 7.74176C53.1646 7.74176 53.6439 7.85348 54.0619 8.07691C54.4799 8.30034 54.8043 8.62107 55.0349 9.03909C55.2727 9.45712 55.3917 9.96164 55.3917 10.5527C55.3917 11.1437 55.2727 11.6482 55.0349 12.0662C54.8043 12.4842 54.4799 12.805 54.0619 13.0284C53.6439 13.2518 53.1646 13.3635 52.624 13.3635C52.0763 13.3635 51.5934 13.2518 51.1753 13.0284C50.7645 12.805 50.4402 12.4842 50.2023 12.0662C49.9717 11.6482 49.8564 11.1437 49.8564 10.5527C49.8564 9.96164 49.9717 9.45712 50.2023 9.03909C50.4402 8.62107 50.7645 8.30034 51.1753 8.07691C51.5934 7.85348 52.0763 7.74176 52.624 7.74176ZM52.624 8.84449C52.2204 8.84449 51.9033 8.98864 51.6726 9.27694C51.4492 9.55803 51.3375 9.98327 51.3375 10.5527C51.3375 11.122 51.4492 11.5509 51.6726 11.8392C51.9033 12.1203 52.2204 12.2608 52.624 12.2608C53.0204 12.2608 53.3304 12.1203 53.5538 11.8392C53.7844 11.5509 53.8997 11.122 53.8997 10.5527C53.8997 9.98327 53.7844 9.55803 53.5538 9.27694C53.3304 8.98864 53.0204 8.84449 52.624 8.84449Z" fill="#CDD0D8"/>
<path d="M58.0905 5.48224V11.5905C58.0905 11.8428 58.1337 12.0194 58.2202 12.1203C58.3067 12.2212 58.4508 12.2716 58.6527 12.2716C58.7752 12.2716 58.8761 12.2644 58.9554 12.25C59.0346 12.2356 59.1356 12.2068 59.2581 12.1635L59.1283 13.1365C59.0058 13.2086 58.8509 13.2626 58.6635 13.2987C58.4833 13.3419 58.3031 13.3635 58.1229 13.3635C57.5968 13.3635 57.2112 13.2374 56.9661 12.9852C56.7283 12.7257 56.6094 12.3149 56.6094 11.7527V5.48224H58.0905Z" fill="#CDD0D8"/>
<path d="M62.5915 13.3635C61.7411 13.3635 61.06 13.1185 60.5482 12.6284C60.0365 12.1311 59.7806 11.4392 59.7806 10.5527C59.7806 9.96164 59.896 9.45712 60.1266 9.03909C60.3572 8.62107 60.678 8.30034 61.0888 8.07691C61.5068 7.85348 61.9825 7.74176 62.5159 7.74176C63.0636 7.74176 63.5285 7.85348 63.9105 8.07691C64.2925 8.29313 64.5844 8.59224 64.7862 8.97423C64.988 9.34901 65.0889 9.77785 65.0889 10.2608C65.0889 10.4049 65.0853 10.5418 65.0781 10.6716C65.0709 10.8013 65.0601 10.9166 65.0457 11.0175H61.2293C61.287 11.4356 61.4311 11.7491 61.6618 11.9581C61.8996 12.1599 62.2059 12.2608 62.5807 12.2608C62.8978 12.2608 63.1537 12.1995 63.3483 12.077C63.5429 11.9545 63.6943 11.7851 63.8024 11.5689L64.9808 12.023C64.8078 12.4482 64.5051 12.7797 64.0727 13.0176C63.6402 13.2482 63.1465 13.3635 62.5915 13.3635ZM62.505 8.83368C61.8059 8.83368 61.3843 9.21928 61.2401 9.99047H63.6726C63.6294 9.61569 63.5069 9.33099 63.3051 9.13639C63.1105 8.93459 62.8438 8.83368 62.505 8.83368Z" fill="#CDD0D8"/>
<path d="M68.5063 13.3635C67.9585 13.3635 67.4576 13.2662 67.0036 13.0716C66.5567 12.877 66.1927 12.6032 65.9116 12.25L66.7657 11.3851C66.9387 11.6446 67.1693 11.8572 67.4576 12.023C67.7459 12.1887 68.0883 12.2716 68.4847 12.2716C68.7658 12.2716 68.9892 12.232 69.155 12.1527C69.3279 12.0662 69.4144 11.9329 69.4144 11.7527C69.4144 11.6374 69.3748 11.5401 69.2955 11.4608C69.2162 11.3743 69.0577 11.3058 68.8198 11.2554L67.8684 11.0608C67.2414 10.931 66.7945 10.7364 66.5279 10.477C66.2684 10.2103 66.1387 9.86795 66.1387 9.44992C66.1387 9.15441 66.2252 8.87693 66.3981 8.61746C66.5783 8.35799 66.845 8.14898 67.1982 7.99042C67.5513 7.82465 67.991 7.74176 68.5171 7.74176C69.6126 7.74176 70.3983 8.07691 70.8739 8.74719L69.9874 9.61208C69.8289 9.35982 69.6199 9.16883 69.3604 9.03909C69.1081 8.90215 68.8414 8.83368 68.5604 8.83368C67.9261 8.83368 67.609 9.01027 67.609 9.36343C67.609 9.47875 67.6594 9.57965 67.7603 9.66614C67.8612 9.74542 68.045 9.81389 68.3117 9.87155L69.4144 10.0986C69.9478 10.2067 70.3298 10.3905 70.5604 10.65C70.7911 10.9022 70.9064 11.2085 70.9064 11.5689C70.9064 12.0878 70.6974 12.5167 70.2793 12.8554C69.8685 13.1942 69.2775 13.3635 68.5063 13.3635Z" fill="#CDD0D8"/>
</svg>
