<svg width="84" height="19" viewBox="0 0 84 19" fill="none" xmlns="http://www.w3.org/2000/svg">
<path d="M8.22319 12.2258C11.3508 12.2258 13.8862 9.69043 13.8862 6.56287C13.8862 3.4353 11.3508 0.899902 8.22319 0.899902H0.295044V12.2258H8.22319Z" fill="#CDD0D8"/>
<path d="M0.295044 0.899902L13.8862 17.8888H4.82541L0.295044 12.2258V0.899902Z" fill="#CDD0D8"/>
<path d="M9.27742 12.1279C8.93585 12.1922 8.58345 12.2258 8.22319 12.2258H0.295044V0.899902L9.27742 12.1279Z" fill="white"/>
<path d="M23.2068 12.9775C22.414 12.9775 21.7329 12.8189 21.1635 12.5018C20.6013 12.1774 20.1689 11.7234 19.8662 11.1396C19.5635 10.5486 19.4121 9.85305 19.4121 9.05303C19.4121 8.253 19.5635 7.56109 19.8662 6.97729C20.1689 6.39349 20.6013 5.94303 21.1635 5.6259C21.7329 5.30157 22.414 5.1394 23.2068 5.1394C23.7185 5.1394 24.2014 5.21869 24.6555 5.37725C25.1168 5.53581 25.4952 5.76285 25.7907 6.05835L25.3366 7.16108C25.0123 6.8872 24.6807 6.689 24.342 6.56647C24.0032 6.43674 23.6393 6.37187 23.2501 6.37187C22.4789 6.37187 21.8915 6.60611 21.4878 7.07459C21.0842 7.53587 20.8824 8.19534 20.8824 9.05303C20.8824 9.91071 21.0842 10.5738 21.4878 11.0423C21.8915 11.5108 22.4789 11.745 23.2501 11.745C23.6393 11.745 24.0032 11.6837 24.342 11.5612C24.6807 11.4315 25.0123 11.2297 25.3366 10.9558L25.7907 12.0585C25.4952 12.3468 25.1168 12.5738 24.6555 12.7396C24.2014 12.8982 23.7185 12.9775 23.2068 12.9775Z" fill="#CDD0D8"/>
<path d="M28.8995 12.9775C28.3517 12.9775 27.876 12.8657 27.4724 12.6423C27.0688 12.4189 26.7552 12.1018 26.5318 11.6909C26.3084 11.2729 26.1967 10.7828 26.1967 10.2206C26.1967 9.65845 26.3084 9.17195 26.5318 8.76113C26.7552 8.3503 27.0688 8.03318 27.4724 7.80975C27.876 7.58632 28.3517 7.4746 28.8995 7.4746C29.4472 7.4746 29.9229 7.58632 30.3265 7.80975C30.7301 8.03318 31.0437 8.3503 31.2671 8.76113C31.4905 9.17195 31.6022 9.65845 31.6022 10.2206C31.6022 10.7828 31.4905 11.2729 31.2671 11.6909C31.0437 12.1018 30.7301 12.4189 30.3265 12.6423C29.9229 12.8657 29.4472 12.9775 28.8995 12.9775ZM28.8995 11.9504C29.3031 11.9504 29.6274 11.8063 29.8725 11.518C30.1175 11.2225 30.24 10.79 30.24 10.2206C30.24 9.64403 30.1175 9.21519 29.8725 8.9341C29.6274 8.64581 29.3031 8.50166 28.8995 8.50166C28.4958 8.50166 28.1715 8.64581 27.9265 8.9341C27.6814 9.21519 27.5589 9.64403 27.5589 10.2206C27.5589 10.79 27.6814 11.2225 27.9265 11.518C28.1715 11.8063 28.4958 11.9504 28.8995 11.9504Z" fill="#CDD0D8"/>
<path d="M32.7393 12.8693V7.58272H34.0582V8.39355C34.2168 8.10525 34.4366 7.88182 34.7177 7.72326C34.9988 7.55749 35.3231 7.4746 35.6907 7.4746C36.4835 7.4746 37.0024 7.82056 37.2475 8.51247C37.4133 8.18814 37.6511 7.93588 37.961 7.75569C38.2709 7.5683 38.6241 7.4746 39.0205 7.4746C40.2097 7.4746 40.8043 8.19895 40.8043 9.64764V12.8693H39.453V9.70169C39.453 9.29808 39.3845 9.00258 39.2475 8.81518C39.1178 8.62779 38.8944 8.53409 38.5773 8.53409C38.2241 8.53409 37.9466 8.66022 37.7448 8.91248C37.543 9.15753 37.4421 9.49989 37.4421 9.93954V12.8693H36.0907V9.70169C36.0907 9.29808 36.0222 9.00258 35.8853 8.81518C35.7556 8.62779 35.5357 8.53409 35.2258 8.53409C34.8726 8.53409 34.5952 8.66022 34.3934 8.91248C34.1915 9.15753 34.0906 9.49989 34.0906 9.93954V12.8693H32.7393Z" fill="#CDD0D8"/>
<path d="M42.2201 12.8693V7.58272H43.539V8.39355C43.6976 8.10525 43.9174 7.88182 44.1985 7.72326C44.4796 7.55749 44.8039 7.4746 45.1715 7.4746C45.9643 7.4746 46.4833 7.82056 46.7283 8.51247C46.8941 8.18814 47.1319 7.93588 47.4419 7.75569C47.7518 7.5683 48.1049 7.4746 48.5013 7.4746C49.6906 7.4746 50.2852 8.19895 50.2852 9.64764V12.8693H48.9338V9.70169C48.9338 9.29808 48.8653 9.00258 48.7284 8.81518C48.5986 8.62779 48.3752 8.53409 48.0581 8.53409C47.7049 8.53409 47.4274 8.66022 47.2256 8.91248C47.0238 9.15753 46.9229 9.49989 46.9229 9.93954V12.8693H45.5715V9.70169C45.5715 9.29808 45.5031 9.00258 45.3661 8.81518C45.2364 8.62779 45.0166 8.53409 44.7066 8.53409C44.3535 8.53409 44.076 8.66022 43.8742 8.91248C43.6724 9.15753 43.5715 9.49989 43.5715 9.93954V12.8693H42.2201Z" fill="#CDD0D8"/>
<path d="M53.4199 12.9775C53.0379 12.9775 52.6956 12.9054 52.3928 12.7612C52.0973 12.6099 51.8631 12.4081 51.6901 12.1558C51.5243 11.9036 51.4415 11.6189 51.4415 11.3017C51.4415 10.9125 51.5424 10.6062 51.7442 10.3828C51.946 10.1522 52.2739 9.98639 52.728 9.88548C53.1821 9.78458 53.7911 9.73413 54.5551 9.73413H54.9335V9.50709C54.9335 9.14672 54.8542 8.88726 54.6956 8.72869C54.537 8.57013 54.2704 8.49085 53.8956 8.49085C53.6001 8.49085 53.2974 8.5377 52.9875 8.63139C52.6775 8.71788 52.364 8.85482 52.0469 9.04222L51.6577 8.12327C51.8451 7.99354 52.0649 7.88182 52.3172 7.78813C52.5766 7.68722 52.8469 7.61154 53.128 7.56109C53.4163 7.50343 53.6866 7.4746 53.9388 7.4746C54.71 7.4746 55.283 7.65479 55.6578 8.01516C56.0326 8.36832 56.22 8.91969 56.22 9.66926V12.8693H54.9551V12.0261C54.8325 12.3216 54.6379 12.5558 54.3713 12.7288C54.1046 12.8946 53.7875 12.9775 53.4199 12.9775ZM53.701 12.0477C54.0541 12.0477 54.346 11.9252 54.5767 11.6801C54.8145 11.4351 54.9335 11.1252 54.9335 10.7504V10.5125H54.5659C53.8884 10.5125 53.4163 10.5666 53.1496 10.6747C52.8901 10.7756 52.7604 10.963 52.7604 11.2369C52.7604 11.4747 52.8433 11.6693 53.0091 11.8207C53.1748 11.972 53.4055 12.0477 53.701 12.0477Z" fill="#CDD0D8"/>
<path d="M57.5916 12.8693V7.58272H58.9106V8.40436C59.0908 8.10165 59.3322 7.87101 59.6349 7.71245C59.9449 7.55389 60.2908 7.4746 60.6728 7.4746C61.9197 7.4746 62.5431 8.19895 62.5431 9.64764V12.8693H61.1917V9.7125C61.1917 9.30168 61.1125 9.00258 60.9539 8.81518C60.8025 8.62779 60.5647 8.53409 60.2404 8.53409C59.8439 8.53409 59.5268 8.66022 59.289 8.91248C59.0583 9.15753 58.943 9.48547 58.943 9.89629V12.8693H57.5916Z" fill="#CDD0D8"/>
<path d="M65.9482 12.9775C65.4869 12.9775 65.0797 12.8657 64.7265 12.6423C64.3806 12.4189 64.1103 12.1018 63.9157 11.6909C63.7211 11.2729 63.6238 10.7828 63.6238 10.2206C63.6238 9.65124 63.7211 9.16474 63.9157 8.76113C64.1103 8.3503 64.3806 8.03318 64.7265 7.80975C65.0797 7.58632 65.4869 7.4746 65.9482 7.4746C66.323 7.4746 66.6617 7.55749 66.9644 7.72326C67.2672 7.88903 67.4942 8.10886 67.6455 8.38274V5.24752H68.9969V12.8693H67.678V11.9936C67.5338 12.2964 67.3068 12.5378 66.9969 12.718C66.687 12.891 66.3374 12.9775 65.9482 12.9775ZM66.3266 11.9504C66.7302 11.9504 67.0545 11.8063 67.2996 11.518C67.5446 11.2225 67.6672 10.79 67.6672 10.2206C67.6672 9.64403 67.5446 9.21519 67.2996 8.9341C67.0545 8.64581 66.7302 8.50166 66.3266 8.50166C65.923 8.50166 65.5986 8.64581 65.3536 8.9341C65.1085 9.21519 64.986 9.64403 64.986 10.2206C64.986 10.79 65.1085 11.2225 65.3536 11.518C65.5986 11.8063 65.923 11.9504 66.3266 11.9504Z" fill="#CDD0D8"/>
<path d="M72.4415 12.4369V10.2422H70.3009V9.29087H72.4415V7.16108H73.4361V9.29087H75.5767V10.2422H73.4361V12.4369H72.4415Z" fill="#CDD0D8"/>
<path d="M77.0103 12.8693V5.24752H80.3185C81.1546 5.24752 81.7997 5.44932 82.2537 5.85294C82.7078 6.24934 82.9348 6.80792 82.9348 7.52866C82.9348 8.09805 82.7871 8.57013 82.4916 8.94492C82.1961 9.31249 81.7708 9.56115 81.2159 9.69088C81.5834 9.8062 81.8861 10.0837 82.124 10.5233L83.3997 12.8693H81.8753L80.5564 10.4368C80.4266 10.199 80.2717 10.0368 80.0915 9.95035C79.9185 9.86386 79.6951 9.82062 79.4212 9.82062H78.3942V12.8693H77.0103ZM78.3942 8.79356H80.0807C81.0897 8.79356 81.5942 8.38274 81.5942 7.56109C81.5942 6.74666 81.0897 6.33944 80.0807 6.33944H78.3942V8.79356Z" fill="#CDD0D8"/>
</svg>
