<svg width="258" height="12" viewBox="0 0 129 6" fill="none" xmlns="http://www.w3.org/2000/svg">
<path d="M2.81946 5.20648C3.95676 5.20648 4.87872 4.28451 4.87872 3.14722C4.87872 2.00992 3.95676 1.08796 2.81946 1.08796C1.68216 1.08796 0.760199 2.00992 0.760199 3.14722C0.760199 4.28451 1.68216 5.20648 2.81946 5.20648ZM128.192 3.42024C128.343 3.26945 128.343 3.02498 128.192 2.87419L125.735 0.416999C125.585 0.266213 125.34 0.266213 125.189 0.416999C125.038 0.567785 125.038 0.812257 125.189 0.963042L127.373 3.14722L125.189 5.33139C125.038 5.48218 125.038 5.72665 125.189 5.87743C125.34 6.02822 125.585 6.02822 125.735 5.87743L128.192 3.42024ZM2.81946 3.14722V3.53333L127.919 3.53333V3.14722V2.76111L2.81946 2.76111V3.14722Z" fill="#B9FD50"/>
</svg>
