<svg width="31" height="31" viewBox="0 0 31 31" fill="none" xmlns="http://www.w3.org/2000/svg">
<path d="M15.4695 30.4359C23.7538 30.4359 30.4695 23.7202 30.4695 15.4359C30.4695 7.15164 23.7538 0.435913 15.4695 0.435913C7.18521 0.435913 0.469482 7.15164 0.469482 15.4359C0.469482 23.7202 7.18521 30.4359 15.4695 30.4359Z" fill="#B9FD50"/>
<path d="M19.8762 13.6555L18.5168 17.9399C18.5168 17.6117 17.5793 10.5055 17.5793 10.5055C15.4231 10.5055 14.2793 12.0336 13.6793 13.6555L12.0199 17.9492C12.0199 17.6399 11.7856 13.693 11.7856 13.693C11.7055 12.8386 11.3149 12.0432 10.6877 11.4575C10.0606 10.8717 9.24033 10.5364 8.38245 10.5149L10.1449 21.2774C12.3949 21.2774 13.6137 19.7492 14.2418 18.1274L15.6481 14.4711C15.6481 14.6211 16.5856 21.2774 16.5856 21.2774C17.5056 21.2762 18.4014 20.982 19.1431 20.4376C19.8847 19.8931 20.4338 19.1267 20.7106 18.2492L23.8981 10.5055C21.6481 10.5055 20.4668 12.0336 19.8668 13.6555H19.8762Z" fill="#111204"/>
</svg>
