<svg width="15" height="14" viewBox="0 0 9 8" fill="none" xmlns="http://www.w3.org/2000/svg">
<path d="M3.91604 6.26738C3.69337 5.51442 3.10445 4.9255 2.35148 4.70282L0.922115 4.28011C0.645502 4.1983 0.645503 3.80652 0.922115 3.72472L2.35149 3.302C3.10445 3.07932 3.69337 2.4904 3.91604 1.73744L4.33876 0.308072C4.42057 0.0314602 4.81235 0.0314609 4.89415 0.308073L5.31687 1.73744C5.53954 2.49041 6.12846 3.07932 6.88143 3.302L8.3108 3.72472C8.58741 3.80652 8.58741 4.1983 8.31079 4.28011L6.88143 4.70282C6.12846 4.9255 5.53954 5.51442 5.31687 6.26738L4.89415 7.69675C4.81234 7.97337 4.42056 7.97336 4.33876 7.69675L3.91604 6.26738Z" fill="#B9FD50" fill-opacity="0.25"/>
</svg>
