<svg width="20" height="20" viewBox="0 0 7 7" fill="none" xmlns="http://www.w3.org/2000/svg">
<path d="M3.06004 4.9921C2.91159 4.49012 2.51897 4.09751 2.017 3.94906L1.06408 3.66725C0.879677 3.61271 0.879676 3.35152 1.06408 3.29699L2.017 3.01518C2.51897 2.86673 2.91159 2.47411 3.06004 1.97214L3.34185 1.01923C3.39638 0.834817 3.65757 0.834817 3.71211 1.01922L3.99392 1.97214C4.14237 2.47411 4.53498 2.86673 5.03696 3.01518L5.98987 3.29699C6.17428 3.35152 6.17428 3.61271 5.98987 3.66725L5.03696 3.94906C4.53498 4.09751 4.14237 4.49012 3.99392 4.9921L3.71211 5.94501C3.65757 6.12942 3.39638 6.12942 3.34185 5.94501L3.06004 4.9921Z" fill="#B9FD50" fill-opacity="0.25"/>
</svg>
