<svg width="30" height="30" viewBox="0 0 19 18" fill="none" xmlns="http://www.w3.org/2000/svg">
<path fill-rule="evenodd" clip-rule="evenodd" d="M9.36533 0.141561C14.1633 0.141561 18.0528 4.03117 18.0528 8.8291C18.0528 13.6273 14.1633 17.5166 9.36533 17.5166C4.56735 17.5166 0.677831 13.6273 0.677831 8.8291C0.677831 4.03117 4.56735 0.141561 9.36533 0.141561Z" fill="#B9FD50"/>
<path fill-rule="evenodd" clip-rule="evenodd" d="M9.016 6.88946L6.27473 9.65778C6.18482 9.74833 6.18512 9.89541 6.27504 9.98566C6.36501 10.0759 6.51109 10.0756 6.60074 9.98536L9.17931 7.38174L11.7576 9.98536C11.8472 10.0759 11.993 10.0762 12.0833 9.98566C12.1286 9.94008 12.1509 9.88082 12.1509 9.82126C12.1509 9.7617 12.1286 9.70306 12.0836 9.65778L9.34232 6.88946C9.29893 6.8457 9.24025 6.82109 9.17931 6.82109C9.11807 6.82109 9.05939 6.846 9.016 6.88946Z" fill="black"/>
<path fill-rule="evenodd" clip-rule="evenodd" d="M9.016 6.88946L6.27473 9.65778C6.18482 9.74833 6.18512 9.89541 6.27504 9.98566C6.36501 10.0759 6.51109 10.0756 6.60074 9.98536L9.17931 7.38174L11.7576 9.98536C11.8472 10.0759 11.993 10.0762 12.0833 9.98566C12.1286 9.94008 12.1509 9.88082 12.1509 9.82126C12.1509 9.7617 12.1286 9.70306 12.0836 9.65778L9.34232 6.88946C9.29893 6.8457 9.24025 6.82109 9.17931 6.82109C9.11807 6.82109 9.05939 6.846 9.016 6.88946Z" fill="#111204"/>
</svg>
