<svg width="30" height="30" viewBox="0 0 19 18" fill="none" xmlns="http://www.w3.org/2000/svg">
<path fill-rule="evenodd" clip-rule="evenodd" d="M9.36533 0.510887C14.1633 0.510887 18.0528 4.40052 18.0528 9.19842C18.0528 13.9963 14.1633 17.886 9.36533 17.886C4.56735 17.886 0.677831 13.9963 0.677831 9.19842C0.677831 4.40052 4.56735 0.510887 9.36533 0.510887Z" fill="#B9FD50"/>
<path fill-rule="evenodd" clip-rule="evenodd" d="M9.016 11.1256L6.27473 8.35724C6.18482 8.26668 6.18512 8.11961 6.27504 8.02936C6.36501 7.9391 6.51109 7.9391 6.60074 8.02966L9.17931 10.633L11.7576 8.02966C11.8472 7.9391 11.993 7.9388 12.0833 8.02936C12.1286 8.07463 12.1509 8.13359 12.1509 8.19345C12.1509 8.2527 12.1286 8.31196 12.0836 8.35724L9.34232 11.1256C9.29893 11.1693 9.24025 11.1936 9.17931 11.1936C9.11807 11.1936 9.05939 11.169 9.016 11.1256Z" fill="black"/>
<path fill-rule="evenodd" clip-rule="evenodd" d="M9.016 11.1256L6.27473 8.35724C6.18482 8.26668 6.18512 8.11961 6.27504 8.02936C6.36501 7.9391 6.51109 7.9391 6.60074 8.02966L9.17931 10.633L11.7576 8.02966C11.8472 7.9391 11.993 7.9388 12.0833 8.02936C12.1286 8.07463 12.1509 8.13359 12.1509 8.19345C12.1509 8.2527 12.1286 8.31196 12.0836 8.35724L9.34232 11.1256C9.29893 11.1693 9.24025 11.1936 9.17931 11.1936C9.11807 11.1936 9.05939 11.169 9.016 11.1256Z" fill="#111204"/>
</svg>
